<svg width="34" height="29" viewBox="0 0 34 29" fill="none" xmlns="http://www.w3.org/2000/svg">
<path d="M21.0013 8.3337V5.16682C21.0013 4.32691 20.6676 3.5214 20.0737 2.9275C19.4798 2.33359 18.6743 1.99994 17.8344 1.99994H5.16688C4.32697 1.99994 3.52146 2.33359 2.92756 2.9275C2.33365 3.5214 2 4.32691 2 5.16682V24.1681C2 25.008 2.33365 25.8135 2.92756 26.4074C3.52146 27.0013 4.32697 27.335 5.16688 27.335H17.201C18.9499 27.335 21.0013 25.917 21.0013 24.1681V21.0012" stroke="#979DA5" stroke-width="3" stroke-linecap="round" stroke-linejoin="round"/>
<path d="M26.0682 8.33371L32.402 14.6675L26.0682 21.0012" stroke="#979DA5" stroke-width="3" stroke-linecap="round" stroke-linejoin="round"/>
<path d="M10.8672 14.6675H31.1353" stroke="#979DA5" stroke-width="3" stroke-linecap="round" stroke-linejoin="round"/>
</svg>
