<svg width="30" height="22" viewBox="0 0 30 22" fill="none" xmlns="http://www.w3.org/2000/svg">
<path d="M0 15.7278C0.68798 16.5987 1.45024 17.4083 2.27821 18.1474C2.27566 18.0748 2.26547 18.006 2.26547 17.9334C2.27045 16.641 2.66637 15.3803 3.40118 14.317C4.136 13.2538 5.17532 12.4378 6.38255 11.9762C6.60458 11.8922 6.79871 11.7478 6.94303 11.5593C7.08735 11.3708 7.17611 11.1457 7.19928 10.9095C7.22246 10.6732 7.17913 10.4352 7.07419 10.2222C6.96925 10.0093 6.80688 9.82991 6.6054 9.70436C6.05483 9.36421 5.60083 8.88839 5.28687 8.32247C4.97292 7.75655 4.80954 7.1195 4.81238 6.47234C4.8096 5.73043 5.02378 5.00389 5.42855 4.38212C5.83332 3.76035 6.41104 3.27048 7.09061 2.97278C7.77018 2.67508 8.52195 2.58254 9.25343 2.70654C9.98491 2.83055 10.6642 3.1657 11.2077 3.67074C12.0037 3.2138 12.8762 2.90528 13.7826 2.76022C13.2858 2.06618 12.6544 1.47923 11.926 1.03436C11.1976 0.589488 10.3871 0.295791 9.54275 0.170769C8.69844 0.0457469 7.8376 0.091958 7.01152 0.306649C6.18545 0.52134 5.41104 0.900118 4.73444 1.42041C4.05784 1.94071 3.4929 2.59188 3.07327 3.33512C2.65364 4.07836 2.38791 4.89846 2.29192 5.74656C2.19593 6.59467 2.27164 7.45341 2.51454 8.27164C2.75744 9.08987 3.16255 9.85083 3.70575 10.5092C1.873 11.7361 0.554359 13.5931 0 15.7278ZM30 15.7278C29.4462 13.5921 28.1275 11.7342 26.2943 10.5066C26.8357 9.84809 27.2392 9.0874 27.4807 8.2698C27.7223 7.4522 27.797 6.59438 27.7004 5.74733C27.6038 4.90028 27.3379 4.08129 26.9185 3.33906C26.4991 2.59683 25.9347 1.94651 25.2589 1.42676C24.5831 0.907007 23.8097 0.528434 22.9847 0.313547C22.1597 0.0986591 21.2999 0.0518441 20.4564 0.175885C19.613 0.299925 18.803 0.592289 18.0748 1.0356C17.3466 1.4789 16.715 2.0641 16.2174 2.7564C17.1238 2.90141 17.9963 3.20993 18.7923 3.66692C19.1825 3.30807 19.6433 3.03456 20.1451 2.86386C20.647 2.69316 21.179 2.62902 21.707 2.67555C22.2351 2.72208 22.7476 2.87826 23.2119 3.13409C23.6762 3.38992 24.082 3.73979 24.4034 4.16135C24.7248 4.5829 24.9548 5.06686 25.0785 5.58231C25.2023 6.09776 25.2172 6.63337 25.1223 7.1549C25.0273 7.67644 24.8247 8.17243 24.5272 8.61119C24.2297 9.04996 23.8439 9.42184 23.3946 9.70309C23.1931 9.82864 23.0307 10.008 22.9258 10.221C22.8209 10.4339 22.7775 10.6719 22.8007 10.9082C22.8239 11.1445 22.9127 11.3695 23.057 11.558C23.2013 11.7465 23.3954 11.8909 23.6175 11.9749C24.8249 12.4366 25.8643 13.2528 26.5992 14.3163C27.334 15.3798 27.7298 16.6408 27.7345 17.9334C27.7345 18.006 27.7243 18.0748 27.7218 18.1461C28.5497 17.4074 29.312 16.5983 30 15.7278Z" fill="#525B69" fill-opacity="0.6"/>
<path d="M23.8557 20.842C23.7173 19.5351 23.2938 18.2746 22.6149 17.1493C21.9361 16.024 21.0186 15.0614 19.9271 14.3296C20.8633 13.1932 21.3728 11.7651 21.3673 10.2927C21.3667 9.27253 21.121 8.26742 20.6509 7.36203C20.1807 6.45664 19.4999 5.67747 18.6658 5.09014C17.8316 4.50281 16.8686 4.12451 15.8577 3.9871C14.8468 3.84969 13.8177 3.95719 12.857 4.30056C11.8964 4.64392 11.0323 5.21309 10.3375 5.96014C9.64275 6.70719 9.13767 7.61024 8.86479 8.59325C8.59192 9.57626 8.55924 10.6105 8.76952 11.6087C8.97979 12.607 9.42686 13.5401 10.0731 14.3296C8.98156 15.0614 8.06401 16.024 7.38519 17.1493C6.70637 18.2746 6.28283 19.5351 6.14447 20.842C6.95286 21.262 7.79041 21.6233 8.65063 21.9232C8.64808 21.8659 8.6328 21.8124 8.6328 21.7538C8.63813 20.4614 9.03418 19.2009 9.76895 18.1377C10.5037 17.0745 11.5428 16.2584 12.7499 15.7966C12.9722 15.7127 13.1667 15.5683 13.3112 15.3797C13.4558 15.1911 13.5447 14.9658 13.5679 14.7293C13.5911 14.4928 13.5476 14.2545 13.4424 14.0414C13.3373 13.8283 13.1746 13.6489 12.9727 13.5235C12.422 13.1838 11.9678 12.7082 11.6539 12.1425C11.3399 11.5767 11.1766 10.9398 11.1797 10.2927C11.1797 9.27949 11.5822 8.30777 12.2987 7.59131C13.0151 6.87485 13.9868 6.47235 15.0001 6.47235C16.0133 6.47235 16.985 6.87485 17.7015 7.59131C18.4179 8.30777 18.8204 9.27949 18.8204 10.2927C18.8235 10.9398 18.6603 11.5767 18.3463 12.1425C18.0323 12.7082 17.5781 13.1838 17.0274 13.5235C16.8256 13.6489 16.6629 13.8283 16.5577 14.0414C16.4525 14.2545 16.409 14.4928 16.4322 14.7293C16.4554 14.9658 16.5443 15.1911 16.6889 15.3797C16.8334 15.5683 17.0279 15.7127 17.2503 15.7966C18.4573 16.2584 19.4964 17.0745 20.2312 18.1377C20.9659 19.2009 21.362 20.4614 21.3673 21.7538C21.3673 21.8124 21.352 21.8659 21.3508 21.9232C22.2106 21.6233 23.0477 21.2619 23.8557 20.842Z" fill="#525B69" fill-opacity="0.6"/>
</svg>
