<svg width="37" height="41" viewBox="0 0 37 41" fill="none" xmlns="http://www.w3.org/2000/svg">
<path fill-rule="evenodd" clip-rule="evenodd" d="M4.11111 14.35C3.02078 14.35 1.9751 13.918 1.20412 13.1491C0.433134 12.3802 0 11.3374 0 10.25V4.1C0 3.01261 0.433134 1.96976 1.20412 1.20086C1.9751 0.431963 3.02078 0 4.11111 0H12.3333C13.4237 0 14.4693 0.431963 15.2403 1.20086C16.0113 1.96976 16.4444 3.01261 16.4444 4.1V10.25C16.4444 11.3374 16.0113 12.3802 15.2403 13.1491C14.4693 13.918 13.4237 14.35 12.3333 14.35H4.11111ZM4.11111 41C3.02078 41 1.9751 40.568 1.20412 39.7991C0.433134 39.0302 0 37.9874 0 36.9V20.5C0 19.4126 0.433134 18.3698 1.20412 17.6009C1.9751 16.832 3.02078 16.4 4.11111 16.4H12.3333C13.4237 16.4 14.4693 16.832 15.2403 17.6009C16.0113 18.3698 16.4444 19.4126 16.4444 20.5V36.9C16.4444 37.9874 16.0113 39.0302 15.2403 39.7991C14.4693 40.568 13.4237 41 12.3333 41H4.11111ZM24.6667 41C23.5763 41 22.5307 40.568 21.7597 39.7991C20.9887 39.0302 20.5556 37.9874 20.5556 36.9V32.8C20.5556 31.7126 20.9887 30.6698 21.7597 29.9009C22.5307 29.132 23.5763 28.7 24.6667 28.7H32.8889C33.9792 28.7 35.0249 29.132 35.7959 29.9009C36.5669 30.6698 37 31.7126 37 32.8V36.9C37 37.9874 36.5669 39.0302 35.7959 39.7991C35.0249 40.568 33.9792 41 32.8889 41H24.6667ZM24.6667 24.6C23.5763 24.6 22.5307 24.168 21.7597 23.3991C20.9887 22.6302 20.5556 21.5874 20.5556 20.5V4.1C20.5556 3.01261 20.9887 1.96976 21.7597 1.20086C22.5307 0.431963 23.5763 0 24.6667 0H32.8889C33.9792 0 35.0249 0.431963 35.7959 1.20086C36.5669 1.96976 37 3.01261 37 4.1V20.5C37 21.5874 36.5669 22.6302 35.7959 23.3991C35.0249 24.168 33.9792 24.6 32.8889 24.6H24.6667Z" fill="#3D9CFB"/>
</svg>
