<svg width="30" height="31" viewBox="0 0 30 31" fill="none" xmlns="http://www.w3.org/2000/svg">
<path fill-rule="evenodd" clip-rule="evenodd" d="M15 3.7356C11.7677 3.7356 8.66774 5.01963 6.38214 7.30523C4.09654 9.59083 2.8125 12.6908 2.8125 15.9231C2.8125 19.1554 4.09654 22.2554 6.38214 24.541C8.66774 26.8266 11.7677 28.1106 15 28.1106C18.2323 28.1106 21.3323 26.8266 23.6179 24.541C25.9035 22.2554 27.1875 19.1554 27.1875 15.9231C27.1875 12.6908 25.9035 9.59083 23.6179 7.30523C21.3323 5.01963 18.2323 3.7356 15 3.7356ZM0 15.9231C0 11.9448 1.58035 8.12954 4.3934 5.31649C7.20644 2.50345 11.0218 0.923096 15 0.923096C18.9782 0.923096 22.7936 2.50345 25.6066 5.31649C28.4196 8.12954 30 11.9448 30 15.9231C30 19.9013 28.4196 23.7167 25.6066 26.5297C22.7936 29.3427 18.9782 30.9231 15 30.9231C11.0218 30.9231 7.20644 29.3427 4.3934 26.5297C1.58035 23.7167 0 19.9013 0 15.9231ZM16.875 21.5481C16.875 22.0454 16.6775 22.5223 16.3258 22.8739C15.9742 23.2256 15.4973 23.4231 15 23.4231C14.5027 23.4231 14.0258 23.2256 13.6742 22.8739C13.3225 22.5223 13.125 22.0454 13.125 21.5481C13.125 21.0508 13.3225 20.5739 13.6742 20.2223C14.0258 19.8706 14.5027 19.6731 15 19.6731C15.4973 19.6731 15.9742 19.8706 16.3258 20.2223C16.6775 20.5739 16.875 21.0508 16.875 21.5481ZM12.975 12.3325C13.1269 12.0325 13.3313 11.7718 13.6125 11.5862C13.8844 11.4043 14.3081 11.2356 15 11.2356C15.525 11.2356 16.0369 11.3987 16.3837 11.6575C16.5414 11.7674 16.669 11.9151 16.7548 12.0871C16.8406 12.259 16.8819 12.4498 16.875 12.6418C16.875 12.9737 16.8 13.1368 16.7306 13.2381C16.589 13.4236 16.4126 13.5796 16.2113 13.6975C16.0688 13.7931 15.915 13.885 15.7275 13.9993L15.7144 14.0068C15.5159 14.124 15.3202 14.2459 15.1275 14.3725C14.6167 14.695 14.1755 15.1163 13.83 15.6118C13.628 15.9222 13.5566 16.2997 13.6312 16.6623C13.7058 17.025 13.9204 17.3437 14.2285 17.5491C14.5366 17.7544 14.9133 17.83 15.2768 17.7594C15.6403 17.6888 15.9612 17.4777 16.17 17.1718C16.311 16.9866 16.4868 16.8305 16.6875 16.7125C16.8476 16.6085 17.0101 16.5085 17.175 16.4125L17.1863 16.405C17.3606 16.2981 17.5688 16.1743 17.7731 16.0393C18.1894 15.76 18.6862 15.3737 19.0706 14.7981C19.4719 14.1981 19.6875 13.4818 19.6875 12.6418C19.6875 11.2168 19.0125 10.1143 18.0694 9.40747C17.1771 8.76095 16.1018 8.41609 15 8.4231C13.8169 8.4231 12.8344 8.7231 12.0525 9.24435C11.2781 9.76185 10.7775 10.4406 10.4606 11.0762C10.3764 11.2416 10.3258 11.422 10.3117 11.6071C10.2976 11.7922 10.3202 11.9782 10.3783 12.1544C10.4364 12.3307 10.5289 12.4937 10.6503 12.6341C10.7717 12.7744 10.9197 12.8894 11.0857 12.9723C11.2518 13.0552 11.4326 13.1044 11.6177 13.1171C11.8029 13.1298 11.9887 13.1057 12.1645 13.0462C12.3403 12.9867 12.5026 12.893 12.6421 12.7705C12.7815 12.648 12.8953 12.4992 12.9769 12.3325H12.975Z" fill="#525B69" fill-opacity="0.6"/>
</svg>
