<svg width="30" height="31" viewBox="0 0 30 31" fill="none" xmlns="http://www.w3.org/2000/svg">
<path fill-rule="evenodd" clip-rule="evenodd" d="M13.3464 0.923096H16.5301C16.6264 0.927564 16.7109 0.938575 16.8296 0.964426C17.7003 1.15403 18.0313 1.46669 18.8416 3.38159L18.9737 3.69748L19.4829 4.95937L19.5248 4.97658L20.1809 4.67954C21.6098 4.04049 22.3465 3.77131 22.8417 3.69621L22.9443 3.68302L23.1313 3.67293C23.5773 3.67293 24.0315 3.8309 24.3792 4.10596L24.5436 4.25305L26.579 6.2802L26.7205 6.42976C27.3598 7.13411 27.4195 7.63347 26.7123 9.45341L26.477 10.0405L25.9223 11.3531L25.9328 11.3787L27.2035 11.8533L27.8161 12.0954C29.3985 12.7425 29.7236 13.0873 29.9352 13.8794C29.9778 14.0392 29.993 14.148 29.9979 14.2831L30 14.4297V17.2916C30 17.495 29.993 17.6099 29.943 17.811C29.7324 18.6566 29.4199 18.9787 27.5182 19.782L27.2045 19.913L25.9514 20.4187L25.9427 20.4398L26.3958 21.4298C27.5226 23.9342 27.5619 24.4833 26.8213 25.3081L26.7287 25.4085L24.6394 27.4965C24.2654 27.8747 23.7325 28.0828 23.2169 28.0828C22.779 28.0828 22.0912 27.8746 20.9189 27.4045L20.2912 27.1473L19.5763 26.845L19.5354 26.8619L19.166 27.8527C18.2616 30.2358 17.9517 30.6227 17.0226 30.8625C16.8853 30.898 16.7871 30.9131 16.6756 30.9192L16.4918 30.9231H13.6284C13.4497 30.9231 13.3489 30.9177 13.1714 30.8793C12.3011 30.6905 11.9687 30.3772 11.1568 28.4612L11.0245 28.1451L10.5144 26.8825L10.4752 26.8663L9.52222 27.2948C7.998 27.9658 7.33769 28.1701 6.86709 28.1701C6.42639 28.1701 5.97762 28.0152 5.62062 27.7375L5.45024 27.5886L3.41765 25.5585L3.18554 25.3053C2.62812 24.6494 2.60072 24.1408 3.28491 22.3901L3.64144 21.5138L4.07666 20.4906L4.06758 20.4686L3.08226 20.1014C1.10563 19.3513 0.49647 19.0057 0.206997 18.3749L0.128698 18.1764L0.0632926 17.9567C0.026284 17.8162 0.0104902 17.7156 0.00407302 17.601L0 17.4121V14.5485C0 14.3435 0.00710689 14.2276 0.0581582 14.0248C0.248491 13.2688 0.518642 12.933 1.9417 12.2952L2.53149 12.0405L4.04599 11.428L4.05637 11.4028L3.49012 10.1533C2.55575 8.0308 2.47836 7.38454 3.06788 6.66274L3.14854 6.56804L3.33955 6.36558L5.36424 4.34528C5.73519 3.97223 6.2658 3.76193 6.78224 3.76193C7.15163 3.76193 7.69401 3.90811 8.56208 4.23692L9.43539 4.58315L10.4254 4.99813L10.466 4.98124L10.8382 3.98392C11.7511 1.58371 12.0769 1.18232 13.0398 0.966745C13.1613 0.939552 13.2479 0.927958 13.3464 0.923096ZM15.7845 3.92055H14.1121L13.8763 4.47339C13.7868 4.69317 13.6857 4.94989 13.5717 5.24788L13.049 6.6462C12.9236 6.97726 12.686 7.25146 12.3806 7.42296L12.2225 7.49994L10.9938 8.01127C10.6836 8.14037 10.341 8.16086 10.0206 8.07293L9.83148 8.00717L8.37788 7.3944L7.59271 7.08126L7.06497 6.88647L5.87965 8.06921L6.01915 8.4216C6.07367 8.55432 6.13641 8.70273 6.20795 8.86805L6.44956 9.41601L7.05549 10.7408C7.20063 11.0563 7.23097 11.4102 7.14529 11.7424L7.07995 11.9387L6.57754 13.1597C6.44453 13.483 6.20362 13.7479 5.89863 13.9112L5.741 13.9842L4.10963 14.6401L3.29413 14.9897L3 15.1259V16.8213L3.35195 16.9739C3.48519 17.0296 3.63482 17.0904 3.80216 17.1567L4.35868 17.3727L5.71098 17.8749C6.05191 17.9978 6.33481 18.2392 6.51027 18.5518L6.58882 18.7138L7.0913 19.9312C7.22033 20.2438 7.23923 20.5889 7.14849 20.9107L7.0809 21.1005L6.49773 22.4692L6.13199 23.372L5.95382 23.8514L7.13922 25.0354L7.49218 24.8959C7.62219 24.8429 7.76468 24.7834 7.92 24.7172L9.00877 24.237L9.79395 23.8755C10.1225 23.7185 10.4949 23.6873 10.8419 23.7836L11.013 23.8425L12.2489 24.3528C12.5765 24.488 12.8438 24.7341 13.0061 25.0449L13.0783 25.2056L13.3859 25.9817L13.8236 27.0462L14.0769 27.6279L14.2142 27.9228H15.8916L16.1311 27.3581L16.4431 26.5613L16.9511 25.1991C17.0764 24.8651 17.3157 24.5886 17.6238 24.4164L17.7834 24.3393L19.014 23.8314C19.3206 23.7048 19.6586 23.6842 19.9755 23.7693L20.1626 23.8331L21.3214 24.3247L22.1672 24.6692L22.6301 24.8477L22.9355 24.9583L24.1223 23.7735L23.8936 23.2091L23.5505 22.4267L22.9434 21.103C22.7977 20.787 22.7673 20.4323 22.8533 20.0994L22.919 19.9028L23.4205 18.6871C23.5528 18.3663 23.7915 18.1031 24.0936 17.9397L24.2498 17.8665L25.6315 17.311L26.3367 17.0153L26.5307 16.931L27 16.7163V15.0225L26.5295 14.8217L25.8922 14.5694L24.2836 13.9706C23.9435 13.8468 23.6615 13.605 23.487 13.2924L23.4088 13.1304L22.9072 11.9081C22.7793 11.5962 22.7608 11.2523 22.8512 10.9315L22.9185 10.7423L23.3842 9.65334C23.5054 9.36536 23.6109 9.11 23.7021 8.88429L23.8655 8.47155L24.0436 7.98924L22.8575 6.80804L22.5044 6.9478C22.309 7.02746 22.0853 7.122 21.8313 7.23239L21.5673 7.34811L20.183 7.97602C19.8681 8.12034 19.5151 8.15035 19.1837 8.06488L18.9879 7.99974L17.7528 7.49199C17.4295 7.35907 17.1645 7.11823 17.001 6.81325L16.928 6.65561L16.4913 5.56292L16.1748 4.79741L15.9995 4.39028L15.7845 3.92055ZM15.0007 9.92111C18.3099 9.92111 21 12.6109 21 15.9204C21 19.2301 18.3097 21.9222 15.0007 21.9222C11.6907 21.9222 9 19.2305 9 15.9204C9 12.6104 11.6905 9.92111 15.0007 9.92111ZM15.0007 12.9214C13.347 12.9214 12 14.2678 12 15.9204C12 17.5737 13.3478 18.922 15.0007 18.922C16.6525 18.922 18 17.5735 18 15.9204C18 14.268 16.6532 12.9214 15.0007 12.9214Z" fill="#525B69" fill-opacity="0.6"/>
</svg>
