<svg width="30" height="30" viewBox="0 0 30 30" fill="none" xmlns="http://www.w3.org/2000/svg">
<path d="M30 28.039C30 28.2732 29.8682 28.4878 29.6045 28.6829C29.3408 28.878 28.9355 29.039 28.3887 29.1659C27.8418 29.2927 27.2803 29.4098 26.7041 29.5171C26.1279 29.6244 25.3906 29.7073 24.4922 29.7659C23.5938 29.8244 22.8125 29.8683 22.1484 29.8976C21.4844 29.9268 20.6299 29.9512 19.585 29.9707C18.54 29.9902 17.749 30 17.2119 30H12.7881L10.415 29.9707L7.85156 29.8976L5.50781 29.7659L3.2959 29.5171L1.61133 29.1659L0.395508 28.6829L0 28.039C0.0390625 26.322 1.11328 24.8049 3.22266 23.4878C5.33203 22.1707 8.00781 21.2976 11.25 20.8683V19.9024C10.2344 19.4537 9.35547 18.8195 8.61328 18C7.87109 17.1805 7.28516 16.2195 6.85547 15.1171C6.42578 14.0146 6.11328 12.8341 5.91797 11.5756C5.72266 10.3171 5.625 8.9561 5.625 7.49268C5.625 6.2439 5.86914 5.13171 6.35742 4.1561C6.8457 3.18049 7.51953 2.39512 8.37891 1.8C9.23828 1.20488 10.2246 0.756098 11.3379 0.453659C12.4512 0.15122 13.6719 0 15 0C16.3281 0 17.5488 0.15122 18.6621 0.453659C19.7754 0.756098 20.7617 1.20488 21.6211 1.8C22.4805 2.39512 23.1543 3.18049 23.6426 4.1561C24.1309 5.13171 24.375 6.2439 24.375 7.49268C24.375 14.322 22.5 18.478 18.75 19.961V20.8683C21.9922 21.2976 24.668 22.1707 26.7773 23.4878C28.8867 24.8049 29.9609 26.322 30 28.039Z" fill="#979DA5"/>
</svg>
