<svg width="30" height="35" viewBox="0 0 30 35" fill="none" xmlns="http://www.w3.org/2000/svg">
<path fill-rule="evenodd" clip-rule="evenodd" d="M15 0.923096L30 6.64115V14.5922C30 21.5691 27.3 26.6433 24.1083 29.9657C22.6932 31.4503 21.0529 32.6944 19.25 33.6507C17.7283 34.4436 16.2067 34.9231 15 34.9231C13.7933 34.9231 12.2717 34.4436 10.75 33.6524C9.18667 32.8375 7.47833 31.6176 5.89167 29.9657C2.69833 26.6433 0 21.5691 0 14.5922V6.64115L15 0.923096ZM21.1783 15.79C21.4819 15.4705 21.6499 15.0425 21.6461 14.5983C21.6423 14.1541 21.467 13.7292 21.158 13.415C20.849 13.1009 20.431 12.9227 19.994 12.9189C19.557 12.915 19.136 13.0858 18.8217 13.3944L13.3333 18.9735L11.1783 16.7829C10.864 16.4743 10.443 16.3035 10.006 16.3073C9.569 16.3112 9.15098 16.4894 8.84197 16.8035C8.53296 17.1176 8.35767 17.5426 8.35388 17.9868C8.35008 18.431 8.51807 18.859 8.82167 19.1785L12.155 22.567C12.4675 22.8846 12.8914 23.0631 13.3333 23.0631C13.7753 23.0631 14.1991 22.8846 14.5117 22.567L21.1783 15.79Z" fill="#525B69" fill-opacity="0.6"/>
</svg>
